<?xml version="1.0" standalone="no"?>
<!DOCTYPE svg PUBLIC "-//W3C//DTD SVG 20010904//EN"
 "http://www.w3.org/TR/2001/REC-SVG-20010904/DTD/svg10.dtd">
<svg version="1.0" xmlns="http://www.w3.org/2000/svg"
 width="304.000000pt" height="304.000000pt" viewBox="0 0 304.000000 304.000000"
 preserveAspectRatio="xMidYMid meet">
<metadata>
Created by potrace 1.11, written by Peter Selinger 2001-2013
</metadata>
<g transform="translate(0.000000,304.000000) scale(0.100000,-0.100000)"
fill="#000000" stroke="none">
<path d="M1637 2844 c-2 -3 -22 -7 -43 -9 -22 -3 -47 -8 -57 -11 -11 -3 -29
-7 -40 -9 -12 -2 -32 -6 -44 -9 -13 -3 -32 -8 -42 -10 -11 -3 -29 -10 -40 -16
-12 -6 -21 -9 -21 -6 0 6 -185 -89 -205 -105 -8 -8 -22 -20 -30 -26 -7 -7 -16
-13 -19 -13 -6 0 -66 -54 -178 -163 -45 -42 -94 -87 -110 -100 -16 -12 -35
-26 -41 -32 -90 -77 -218 -126 -344 -130 -40 -2 -76 -6 -82 -9 -5 -3 -12 0
-14 6 -4 10 -8 10 -15 -1 -6 -9 -12 -10 -16 -2 -5 7 -15 7 -32 1 -17 -7 -23
-7 -19 0 4 6 -2 7 -18 1 -13 -5 -30 -5 -37 -1 -8 5 -19 5 -26 -1 -8 -7 -14 -6
-19 1 -4 7 -12 7 -25 0 -13 -7 -21 -7 -25 0 -4 6 -12 7 -18 3 -16 -10 -47 -11
-47 -2 0 5 -7 6 -15 3 -13 -5 -15 -142 -14 -1105 l0 -1099 220 1 c127 0 219 4
219 10 0 5 3 8 7 7 9 -3 144 52 158 64 5 4 17 8 27 8 10 0 18 5 18 10 0 6 7
10 15 10 14 0 215 99 225 111 3 3 30 19 60 35 30 16 58 34 62 39 4 6 11 10 15
10 11 1 97 58 101 68 2 4 8 7 13 7 5 0 31 15 58 34 27 19 52 32 55 29 3 -4 6
-2 6 4 0 6 15 20 33 30 81 49 296 264 377 379 33 46 60 88 60 93 0 5 6 14 14
20 8 7 29 40 47 74 17 34 37 65 43 69 6 4 8 8 3 8 -8 0 43 101 56 111 5 3 8 9
8 13 -1 3 7 25 16 48 10 24 17 46 15 51 -1 4 3 7 8 7 6 0 10 4 10 9 0 5 10 30
22 57 12 27 23 51 23 54 1 3 12 28 24 55 13 28 24 55 25 61 1 7 8 19 15 28 7
9 11 16 8 16 -3 0 17 53 45 118 27 64 50 123 51 130 0 6 4 12 9 12 4 0 7 3 6
8 -3 13 34 92 43 92 5 0 8 3 7 8 -4 14 13 52 23 52 6 0 8 4 5 8 -5 8 77 133
128 196 16 20 36 36 43 36 7 0 13 4 13 9 0 5 8 8 18 6 9 -1 23 2 30 8 7 6 30
11 50 13 32 2 121 10 217 19 17 2 30 4 30 5 0 1 11 4 25 6 41 6 102 17 155 29
17 4 35 8 42 9 24 4 27 17 5 23 -12 3 -22 9 -22 13 0 10 -87 40 -94 32 -3 -3
-6 0 -6 7 0 7 -5 9 -10 6 -6 -4 -18 -1 -27 7 -14 11 -16 11 -8 -1 6 -11 5 -12
-6 -5 -20 12 -77 20 -214 29 -54 4 -74 10 -87 25 -9 11 -20 20 -25 20 -4 0
-14 9 -21 20 -7 11 -18 20 -25 20 -7 0 -19 9 -27 20 -8 11 -19 20 -24 20 -5 0
-18 7 -28 17 -19 17 -43 32 -88 55 -14 7 -31 18 -38 25 -7 7 -24 16 -38 19
-13 3 -24 10 -24 15 0 5 -3 8 -7 7 -5 0 -15 1 -23 4 -59 23 -66 25 -92 31 -7
1 -19 6 -26 11 -7 4 -26 9 -43 11 -17 3 -37 9 -44 15 -9 8 -15 8 -20 0 -3 -6
-12 -7 -18 -3 -12 8 -283 14 -290 7z"/>
</g>
</svg>
